<svg height="100%"  version="1.1" viewBox="0 0 100 100" width="100%" xml:space="preserve" xmlns="http://www.w3.org/2000/svg" xmlns:xlink="http://www.w3.org/1999/xlink">

<g opacity="1">
<path d="M31.7082 38.7785C39.0511 39.4652 44.5027 41.7879 48.0629 45.7465C51.6231 49.7051 53.4032 54.6534 53.4032 60.5914C53.4032 65.7618 52.1953 70.2153 49.7795 73.9518C47.3636 77.6882 44.2722 80.1321 40.5054 81.2833C36.7386 82.4346 31.6923 83.0102 25.3665 83.0102L3.67743e-15 83.0102L3.67743e-15 80.223L2.47944 80.223C5.24496 80.223 7.16017 79.7787 8.22505 78.89C9.28994 78.0013 9.96543 76.6178 10.2515 74.7395C10.5376 72.8611 10.6806 68.4885 10.6806 61.6214L10.6806 21.6311C10.6806 14.9661 10.5297 10.6641 10.2277 8.72516C9.92569 6.78623 9.28994 5.45322 8.32042 4.72613C7.35089 3.99903 5.22907 3.63548 1.95494 3.63548L0.715222 3.63548L0.715222 0.848279L11.3482 0.484731L23.4593-3.25993e-15C41.1332-3.25993e-15 49.9702 6.46308 49.9702 19.3892C49.9702 24.7213 48.4523 29.0031 45.4166 32.2346C42.3809 35.4662 37.8114 37.6474 31.7082 38.7785ZM20.0262 37.6272C20.8209 37.6676 21.4884 37.6878 22.0288 37.6878C28.895 37.6878 33.5836 36.3144 36.0949 33.5676C38.6061 30.8208 39.8617 26.3774 39.8617 20.2375C39.8617 15.9557 39.369 12.6434 38.3836 10.3005C37.3982 7.95767 35.92 6.15003 33.9492 4.87761C31.9784 3.60519 28.6089 2.96898 23.8407 2.96898C22.601 2.96898 21.3295 3.02957 20.0262 3.15075L20.0262 37.6272ZM20.0262 40.5962L20.0262 58.8948C20.0262 66.6909 20.1375 71.6392 20.36 73.7397C20.5825 75.8402 21.1785 77.4358 22.148 78.5264C23.1176 79.6171 25.0328 80.1624 27.8937 80.1624C32.9797 80.1624 36.7942 78.5062 39.3372 75.1939C41.8802 71.8816 43.1517 66.9131 43.1517 60.2884C43.1517 53.5022 41.7133 48.5034 38.8366 45.2921C35.9598 42.0807 30.8976 40.475 23.65 40.475C22.5057 40.475 21.2977 40.5154 20.0262 40.5962Z" fill="#ff6932" fill-rule="nonzero" opacity="1" stroke="#323232" stroke-linecap="butt" stroke-linejoin="round" stroke-width="0.335419"/>
<path d="M88.9927 100L47.5964 28.7852L47.5964 81.5099C47.5964 85.8803 47.7619 88.7565 48.0928 90.1386C48.4238 91.5207 49.3662 92.7907 50.9202 93.9487C52.4742 95.1067 54.8051 95.6856 57.9131 95.6856L57.9131 98.2631L36.0711 98.2631L36.0711 95.6856C38.8625 95.4242 40.992 94.7611 42.4596 93.6966C43.9273 92.632 44.7978 91.4834 45.0712 90.2507C45.3446 89.018 45.4813 86.1044 45.4813 81.5099L45.4813 41.224C45.4813 35.3968 45.2726 31.4933 44.8554 29.5136C44.4381 27.5338 43.7762 26.2638 42.8697 25.7035C41.9632 25.1432 39.9416 24.8631 36.8049 24.8631L36.8049 22.2856L54.0713 22.2856L88.7337 81.734L88.7337 36.2933C88.7337 32.9314 88.4675 30.5782 87.9351 29.2334C87.4027 27.8887 86.3164 26.8241 84.676 26.0397C83.0357 25.2553 81.0645 24.8631 78.7623 24.8631L78.7623 22.2856L100 22.2856L100 24.8631C97.5251 25.1245 95.5755 25.7409 94.151 26.7121C92.8325 28.908 93.1741 33.884 93.1741 37.1337L92.9415 100L88.9927 100Z" fill="#ff4704" fill-rule="nonzero" opacity="1" stroke="#323232" stroke-linecap="butt" stroke-linejoin="round" stroke-width="0.335419"/>
</g>

</svg>
