<svg height="200" stroke-miterlimit="10" style="fill-rule:nonzero;clip-rule:evenodd;stroke-linecap:round;stroke-linejoin:round;" version="1.1" viewBox="0 0 99.1776 17.7458" width="800" xml:space="preserve" xmlns="http://www.w3.org/2000/svg" xmlns:xlink="http://www.w3.org/1999/xlink">
<defs/>

<g opacity="1">
<path d="M8.57536 7.27276C9.69752 7.35535 10.5306 7.63467 11.0747 8.11074C11.6188 8.58681 11.8908 9.18189 11.8908 9.89599C11.8908 10.5178 11.7062 11.0534 11.337 11.5027C10.9678 11.9521 10.4954 12.246 9.91977 12.3844C9.34411 12.5229 8.57293 12.5921 7.60622 12.5921L3.72967 12.5921L3.72967 12.2569L4.10858 12.2569C4.53122 12.2569 4.8239 12.2035 4.98664 12.0966C5.14937 11.9897 5.2526 11.8233 5.29632 11.5974C5.34004 11.3716 5.3619 10.8457 5.3619 10.0199L5.3619 5.21061C5.3619 4.40907 5.33883 3.89171 5.29268 3.65854C5.24653 3.42536 5.14937 3.26505 5.00121 3.17761C4.85305 3.09017 4.52879 3.04645 4.02843 3.04645L3.83897 3.04645L3.83897 2.71126L5.46392 2.66754L7.31475 2.60924C10.0157 2.60924 11.3662 3.3865 11.3662 4.941C11.3662 5.58224 11.1342 6.09717 10.6703 6.48579C10.2064 6.87442 9.50806 7.13674 8.57536 7.27276ZM6.79011 7.13431C6.91155 7.13917 7.01357 7.1416 7.09615 7.1416C8.14544 7.1416 8.86197 6.97643 9.24574 6.6461C9.62951 6.31577 9.82139 5.78141 9.82139 5.04302C9.82139 4.52809 9.7461 4.12975 9.59551 3.84799C9.44491 3.56624 9.21902 3.34885 8.91784 3.19583C8.61665 3.04281 8.10172 2.96629 7.37305 2.96629C7.18359 2.96629 6.98928 2.97358 6.79011 2.98815L6.79011 7.13431ZM6.79011 7.49136L6.79011 9.69196C6.79011 10.6295 6.80711 11.2246 6.84111 11.4772C6.87512 11.7298 6.9662 11.9217 7.11437 12.0529C7.26253 12.184 7.55522 12.2496 7.99242 12.2496C8.76967 12.2496 9.35261 12.0504 9.74124 11.6521C10.1299 11.2538 10.3242 10.6562 10.3242 9.85956C10.3242 9.04344 10.1044 8.44229 9.66473 8.05609C9.2251 7.66989 8.45149 7.47679 7.3439 7.47679C7.16902 7.47679 6.98442 7.48165 6.79011 7.49136Z" fill="#eb493a" fill-rule="nonzero" opacity="1" stroke="2"/>
<path d="M15.0387 7.90671C15.2039 7.47436 15.4723 7.11245 15.8439 6.82098C16.2155 6.52951 16.5786 6.38378 16.9333 6.38378C17.2539 6.38378 17.5065 6.48336 17.6911 6.68254C17.8757 6.88171 17.968 7.08574 17.968 7.29462C17.968 7.4355 17.9206 7.55695 17.8259 7.65896C17.7312 7.76097 17.6158 7.81198 17.4798 7.81198C17.2369 7.81198 17.0523 7.63224 16.926 7.27276C16.8385 7.02987 16.7074 6.90842 16.5325 6.90842C16.3236 6.90842 16.0734 7.05052 15.782 7.3347C15.4905 7.61888 15.3035 7.914 15.2209 8.22004C15.1383 8.52608 15.097 8.94629 15.097 9.48065L15.097 10.5445C15.097 11.1809 15.1055 11.5817 15.1225 11.7468C15.1395 11.912 15.2087 12.0383 15.3302 12.1257C15.4516 12.2132 15.6678 12.2569 15.9787 12.2569L16.1827 12.2569L16.1827 12.5921L13.013 12.5921L13.013 12.2569L13.166 12.2569C13.4575 12.2569 13.6652 12.2168 13.789 12.1367C13.9129 12.0565 13.987 11.9436 14.0113 11.7978C14.0356 11.6521 14.0477 11.2343 14.0477 10.5445L14.0477 8.86127C14.0477 8.22004 14.0392 7.81805 14.0222 7.65532C14.0052 7.49258 13.936 7.36628 13.8145 7.27641C13.6931 7.18654 13.4769 7.1416 13.166 7.1416L13.013 7.1416L13.013 6.8137C13.4696 6.76026 14.0671 6.61696 14.8055 6.38378C14.9464 6.76755 15.0241 7.27519 15.0387 7.90671Z" fill="#eb493a" fill-rule="nonzero" opacity="1" stroke="2"/>
<path d="M23.812 8.64267L19.6512 8.64267C19.6318 8.92928 19.6221 9.14303 19.6221 9.2839C19.6221 10.3332 19.786 11.1214 20.1139 11.6485C20.4418 12.1755 20.9313 12.4391 21.5822 12.4391C22.4663 12.4391 23.093 12.0432 23.4622 11.2513L23.812 11.2513C23.6565 11.7468 23.348 12.1342 22.8865 12.4136C22.425 12.6929 21.9223 12.8326 21.3782 12.8326C20.873 12.8326 20.3957 12.705 19.9463 12.45C19.497 12.195 19.129 11.8343 18.8424 11.3679C18.5558 10.9016 18.4125 10.3356 18.4125 9.6701C18.4125 8.72768 18.6894 7.94436 19.2432 7.32013C19.797 6.69589 20.4892 6.38378 21.3199 6.38378C22.102 6.38378 22.7068 6.62181 23.1343 7.09788C23.5618 7.57395 23.7877 8.08888 23.812 8.64267ZM22.5368 8.3512C22.5513 8.23947 22.5586 8.13989 22.5586 8.05244C22.5586 7.62496 22.4335 7.29341 22.1834 7.0578C21.9332 6.8222 21.6259 6.7044 21.2616 6.7044C20.3775 6.7044 19.8504 7.25333 19.6804 8.3512L22.5368 8.3512Z" fill="#eb493a" fill-rule="nonzero" opacity="1" stroke="2"/>
<path d="M30.953 11.4991L31.2226 11.4991C31.1789 12.3298 30.7708 12.7451 29.9984 12.7451C29.6681 12.7451 29.407 12.6577 29.2151 12.4828C29.0232 12.3079 28.8981 12.048 28.8398 11.7031C28.354 12.048 27.9107 12.3079 27.51 12.4828C27.1092 12.6577 26.7509 12.7451 26.4352 12.7451C26.032 12.7451 25.6846 12.6285 25.3932 12.3953C25.1017 12.1622 24.956 11.8537 24.956 11.4699C24.956 10.9696 25.2001 10.5324 25.6883 10.1583C26.1765 9.78426 26.8505 9.41992 27.7104 9.0653L28.8398 8.60624L28.8398 8.31477C28.8398 7.90185 28.8131 7.60309 28.7597 7.4185C28.7062 7.2339 28.5678 7.06873 28.3443 6.923C28.1208 6.77726 27.8269 6.7044 27.4626 6.7044C26.7339 6.7044 26.3283 6.94729 26.2457 7.43307C26.168 7.92857 25.964 8.17632 25.6336 8.17632C25.3373 8.17632 25.1891 8.03544 25.1891 7.75369C25.1891 7.47679 25.3859 7.17925 25.7794 6.86106C26.1729 6.54287 26.7849 6.38378 27.6156 6.38378C28.2326 6.38378 28.7111 6.48094 29.0511 6.67525C29.3912 6.86956 29.6158 7.09059 29.7251 7.33834C29.8344 7.58609 29.8891 7.965 29.8891 8.47508L29.8891 10.887C29.8891 11.4505 29.9182 11.8124 29.9765 11.9727C30.0348 12.133 30.1611 12.2132 30.3554 12.2132C30.6761 12.2132 30.8752 11.9751 30.953 11.4991ZM28.8398 8.94871L28.0456 9.26933C26.7922 9.7794 26.1656 10.4206 26.1656 11.193C26.1656 11.4991 26.2457 11.7456 26.406 11.9326C26.5663 12.1197 26.7752 12.2132 27.0327 12.2132C27.261 12.2132 27.5258 12.1379 27.8269 11.9873C28.1281 11.8367 28.4658 11.6108 28.8398 11.3096L28.8398 8.94871Z" fill="#eb493a" fill-rule="nonzero" opacity="1" stroke="2"/>
<path d="M35.3177 6.62424L37.7224 6.62424L37.7224 6.95943C37.2803 6.96915 36.6876 7.29948 35.9444 7.95043C35.7064 8.15446 35.3372 8.45322 34.8368 8.8467L36.9645 11.3388C37.2851 11.7128 37.5378 11.9569 37.7224 12.0711C37.9069 12.1852 38.0964 12.2472 38.2907 12.2569L38.2907 12.5921L35.3177 12.5921L35.3177 12.2569C35.8132 12.2472 36.061 12.1403 36.061 11.9363C36.061 11.844 35.8982 11.6084 35.5728 11.2295L34.0425 9.4515L33.7292 9.68468L33.7292 10.5445C33.7292 11.1809 33.7377 11.5804 33.7547 11.7432C33.7717 11.9059 33.8409 12.0322 33.9624 12.1221C34.0838 12.212 34.2952 12.2569 34.5963 12.2569L34.5963 12.5921L31.5723 12.5921L31.5723 12.2569L31.7982 12.2569C32.148 12.2569 32.3751 12.2071 32.4795 12.1075C32.584 12.0079 32.6435 11.8889 32.6581 11.7505C32.6726 11.612 32.6799 11.21 32.6799 10.5445L32.6799 4.56209C32.6799 3.98401 32.6253 3.61481 32.516 3.45451C32.4067 3.2942 32.1431 3.21404 31.7254 3.21404L31.7254 2.87885C32.012 2.87885 32.3557 2.84485 32.7564 2.77684C33.1572 2.70883 33.4305 2.64082 33.5762 2.57281L33.7292 2.57281L33.7292 9.2839L34.3559 8.8467C35.3712 8.12774 35.8788 7.61038 35.8788 7.29462C35.8788 7.08088 35.6918 6.96915 35.3177 6.95943L35.3177 6.62424Z" fill="#eb493a" fill-rule="nonzero" opacity="1" stroke="2"/>
<path d="M39.2161 3.33792C39.2161 3.12903 39.2902 2.94929 39.4384 2.7987C39.5865 2.64811 39.7651 2.57281 39.974 2.57281C40.1828 2.57281 40.3602 2.64811 40.5059 2.7987C40.6516 2.94929 40.7245 3.12903 40.7245 3.33792C40.7245 3.55166 40.6516 3.73383 40.5059 3.88442C40.3602 4.03502 40.1828 4.11031 39.974 4.11031C39.7651 4.11031 39.5865 4.03502 39.4384 3.88442C39.2902 3.73383 39.2161 3.55166 39.2161 3.33792ZM40.6225 6.38378L40.6225 10.5445C40.6225 11.1809 40.6322 11.5817 40.6516 11.7468C40.6711 11.912 40.7415 12.0383 40.8629 12.1257C40.9844 12.2132 41.2006 12.2569 41.5115 12.2569L41.6645 12.2569L41.6645 12.5921L38.451 12.5921L38.451 12.2569L38.6988 12.2569C39.0437 12.2569 39.2684 12.2071 39.3728 12.1075C39.4772 12.0079 39.538 11.8889 39.555 11.7505C39.572 11.612 39.5805 11.21 39.5805 10.5445L39.5805 8.7374C39.5805 8.03787 39.5477 7.61038 39.4821 7.45493C39.4165 7.29948 39.3291 7.20232 39.2198 7.16346C39.1105 7.1246 38.9198 7.10517 38.6478 7.10517L38.451 7.10517L38.451 6.76998C39.3157 6.68254 39.9861 6.5538 40.4622 6.38378L40.6225 6.38378Z" fill="#eb493a" fill-rule="nonzero" opacity="1" stroke="2"/>
<path d="M44.0035 6.38378L44.2003 6.38378C44.312 6.68496 44.3752 7.09545 44.3897 7.61524C44.7395 7.20232 45.1063 6.89385 45.49 6.68982C45.8738 6.48579 46.2746 6.38378 46.6923 6.38378C47.1684 6.38378 47.5582 6.48336 47.8619 6.68254C48.1655 6.88171 48.361 7.12581 48.4484 7.41485C48.5359 7.70389 48.5796 8.12531 48.5796 8.6791L48.5796 10.5445C48.5796 11.2343 48.5918 11.6545 48.616 11.8051C48.6403 11.9557 48.7168 12.0687 48.8456 12.144C48.9743 12.2192 49.2111 12.2569 49.556 12.2569L49.556 12.5921L46.5029 12.5921L46.5029 12.2569L46.6413 12.2569C46.9911 12.2569 47.2194 12.2059 47.3263 12.1039C47.4332 12.0019 47.4939 11.8828 47.5085 11.7468C47.523 11.6108 47.5303 11.21 47.5303 10.5445L47.5303 8.62081C47.5303 8.1496 47.5072 7.8132 47.4611 7.6116C47.4149 7.41 47.2911 7.23147 47.0895 7.07602C46.8879 6.92057 46.6316 6.84284 46.3207 6.84284C45.9661 6.84284 45.6273 6.9485 45.3042 7.15982C44.9812 7.37113 44.6763 7.68811 44.3897 8.11074L44.3897 10.5445C44.3897 11.2343 44.4031 11.6545 44.4298 11.8051C44.4565 11.9557 44.5342 12.0687 44.663 12.144C44.7917 12.2192 45.031 12.2569 45.3807 12.2569L45.3807 12.5921L42.364 12.5921L42.364 12.2569C42.6992 12.2569 42.9324 12.2229 43.0635 12.1549C43.1947 12.0869 43.2761 11.9836 43.3076 11.8452C43.3392 11.7067 43.355 11.2732 43.355 10.5445L43.355 8.76655C43.355 8.07188 43.3416 7.65046 43.3149 7.50229C43.2882 7.35413 43.2105 7.2424 43.0818 7.1671C42.953 7.09181 42.7138 7.05416 42.364 7.05416L42.364 6.71897C42.8984 6.66068 43.4449 6.54895 44.0035 6.38378Z" fill="#eb493a" fill-rule="nonzero" opacity="1" stroke="2"/>
<path d="M54.9919 7.14889C55.4049 6.68254 55.8226 6.44936 56.2453 6.44936C56.4784 6.44936 56.6594 6.51251 56.7881 6.63882C56.9169 6.76512 56.9812 6.90357 56.9812 7.05416C56.9812 7.37478 56.8355 7.53509 56.544 7.53509C56.3837 7.53509 56.2453 7.4355 56.1287 7.23633C56.0218 7.05173 55.9101 6.95943 55.7935 6.95943C55.6089 6.95943 55.4049 7.08574 55.1814 7.33834C55.434 7.73669 55.5603 8.15932 55.5603 8.60624C55.5603 9.18918 55.3514 9.70411 54.9336 10.151C54.5159 10.6028 53.8115 10.8457 52.8205 10.8797C51.7906 10.9137 51.2757 11.1226 51.2757 11.5064C51.2757 11.6861 51.3923 11.8124 51.6255 11.8853C51.8538 11.963 52.3347 12.0213 53.0682 12.0602C53.8698 12.099 54.4867 12.1731 54.9191 12.2824C55.3514 12.3917 55.6963 12.6115 55.9538 12.9419C56.2113 13.2722 56.34 13.6657 56.34 14.1223C56.34 14.7635 56.0777 15.2809 55.553 15.6744C55.0284 16.0679 54.273 16.2646 53.2868 16.2646C52.3833 16.2646 51.6595 16.0897 51.1154 15.74C50.5713 15.3902 50.2993 14.9481 50.2993 14.4138C50.2993 14.1174 50.377 13.8746 50.5325 13.6851C50.6879 13.4956 50.9089 13.4009 51.1955 13.4009C51.2733 13.4009 51.3437 13.4131 51.4069 13.4374C51.1057 13.7677 50.9551 14.1174 50.9551 14.4866C50.9551 14.9141 51.1555 15.2675 51.5562 15.5469C51.957 15.8262 52.5557 15.9659 53.3524 15.9659C54.0617 15.9659 54.6142 15.8238 55.0102 15.5396C55.4061 15.2554 55.604 14.8923 55.604 14.4502C55.604 13.9644 55.4267 13.6219 55.0721 13.4228C54.7175 13.2285 54.086 13.1119 53.1775 13.073C52.1331 13.0293 51.4554 12.9006 51.1445 12.6868C50.8336 12.4779 50.6782 12.2083 50.6782 11.878C50.6782 11.2416 51.1227 10.8408 52.0117 10.6757C51.5502 10.4036 51.2028 10.0927 50.9697 9.74297C50.7365 9.39321 50.6199 9.00215 50.6199 8.5698C50.6199 7.96257 50.8591 7.44643 51.3376 7.02137C51.8161 6.59631 52.3833 6.38378 53.0391 6.38378C53.8504 6.38378 54.5013 6.63882 54.9919 7.14889ZM51.7129 8.7374C51.7129 9.36406 51.8416 9.82312 52.0991 10.1146C52.3566 10.4061 52.6845 10.5518 53.0828 10.5518C53.452 10.5518 53.769 10.4073 54.0337 10.1182C54.2985 9.8292 54.4309 9.32763 54.4309 8.61352C54.4309 7.89456 54.29 7.39907 54.0082 7.12703C53.7265 6.85499 53.4083 6.71897 53.0537 6.71897C52.6067 6.71897 52.2716 6.88656 52.0481 7.22176C51.8246 7.55695 51.7129 8.06216 51.7129 8.7374Z" fill="#eb493a" fill-rule="nonzero" opacity="1" stroke="2"/>
<path d="M69.7913 12.818L62.8033 3.55652L62.8033 10.4134C62.8033 10.9817 62.8313 11.3558 62.8871 11.5355C62.943 11.7152 63.1021 11.8804 63.3644 12.031C63.6267 12.1816 64.0202 12.2569 64.5449 12.2569L64.5449 12.5921L60.8578 12.5921L60.8578 12.2569C61.329 12.2229 61.6885 12.1367 61.9362 11.9982C62.184 11.8598 62.3309 11.7104 62.3771 11.5501C62.4232 11.3898 62.4463 11.0109 62.4463 10.4134L62.4463 5.17418C62.4463 4.41636 62.4111 3.90871 62.3406 3.65125C62.2702 3.39378 62.1585 3.22862 62.0054 3.15575C61.8524 3.08288 61.5112 3.04645 60.9816 3.04645L60.9816 2.71126L63.8963 2.71126L69.7476 10.4425L69.7476 4.53295C69.7476 4.09574 69.7027 3.7897 69.6128 3.61481C69.5229 3.43993 69.3395 3.30148 69.0627 3.19947C68.7858 3.09746 68.453 3.04645 68.0644 3.04645L68.0644 2.71126L71.6494 2.71126L71.6494 3.04645C71.2317 3.08045 70.9026 3.16061 70.6621 3.28691C70.4216 3.41321 70.2686 3.56502 70.203 3.74233C70.1374 3.91964 70.1047 4.21962 70.1047 4.64225L70.1047 12.818L69.7913 12.818Z" fill="#eb493a" fill-rule="nonzero" opacity="1" stroke="2"/>
<path d="M77.7557 8.64267L73.595 8.64267C73.5756 8.92928 73.5659 9.14303 73.5659 9.2839C73.5659 10.3332 73.7298 11.1214 74.0577 11.6485C74.3856 12.1755 74.875 12.4391 75.526 12.4391C76.4101 12.4391 77.0368 12.0432 77.406 11.2513L77.7557 11.2513C77.6003 11.7468 77.2918 12.1342 76.8303 12.4136C76.3688 12.6929 75.866 12.8326 75.322 12.8326C74.8168 12.8326 74.3395 12.705 73.8901 12.45C73.4408 12.195 73.0728 11.8343 72.7862 11.3679C72.4996 10.9016 72.3563 10.3356 72.3563 9.6701C72.3563 8.72768 72.6332 7.94436 73.187 7.32013C73.7407 6.69589 74.433 6.38378 75.2637 6.38378C76.0458 6.38378 76.6506 6.62181 77.0781 7.09788C77.5056 7.57395 77.7315 8.08888 77.7557 8.64267ZM76.4806 8.3512C76.4951 8.23947 76.5024 8.13989 76.5024 8.05244C76.5024 7.62496 76.3773 7.29341 76.1272 7.0578C75.877 6.8222 75.5697 6.7044 75.2054 6.7044C74.3213 6.7044 73.7942 7.25333 73.6242 8.3512L76.4806 8.3512Z" fill="#eb493a" fill-rule="nonzero" opacity="1" stroke="2"/>
<path d="M85.487 12.8253L85.1591 12.8253L83.3811 8.08888L81.5667 12.8253L81.2461 12.8253L79.4244 8.08888C79.2155 7.54966 79.0601 7.22661 78.9581 7.11974C78.856 7.01287 78.652 6.95943 78.346 6.95943L78.346 6.62424L81.0712 6.62424L81.0712 6.95943C80.7652 6.95943 80.5563 6.98736 80.4446 7.04323C80.3328 7.09909 80.277 7.19504 80.277 7.33106C80.277 7.42821 80.3717 7.7124 80.5611 8.18361L81.7707 11.3825L83.6216 6.62424L83.9058 6.62424L85.6983 11.3825L87.0099 7.99415C87.1508 7.63467 87.2212 7.4185 87.2212 7.34563C87.2212 7.1076 86.9759 6.97886 86.4853 6.95943L86.4853 6.62424L88.4235 6.62424L88.4235 6.95943C88.1904 6.96429 88.007 7.00922 87.8734 7.09424C87.7398 7.17925 87.6171 7.36992 87.5054 7.66625L87.3451 8.08888L85.487 12.8253Z" fill="#eb493a" fill-rule="nonzero" opacity="1" stroke="2"/>
<path d="M89.0356 12.7815L89.0356 10.8214L89.3198 10.8214C89.6501 11.9533 90.2404 12.5192 91.0905 12.5192C91.4597 12.5192 91.7354 12.4075 91.9175 12.184C92.0997 11.9606 92.1908 11.7152 92.1908 11.4481C92.1908 11.1372 92.0936 10.8821 91.8993 10.683C91.7001 10.4838 91.314 10.2433 90.7407 9.96157C90.1384 9.66524 89.706 9.37377 89.4437 9.08716C89.1814 8.80541 89.0502 8.45807 89.0502 8.04516C89.0502 7.65167 89.1911 7.27641 89.4728 6.91936C89.7546 6.5623 90.1505 6.38378 90.6606 6.38378C91.1804 6.38378 91.6103 6.59509 91.9503 7.01773C92.0232 6.94486 92.1179 6.76755 92.2345 6.48579L92.5041 6.48579L92.5041 8.32934L92.2345 8.32934C92.1374 7.88728 91.9491 7.50715 91.6698 7.18896C91.3905 6.87078 91.0613 6.71168 90.6824 6.71168C90.391 6.71168 90.1554 6.80155 89.9756 6.98129C89.7959 7.16103 89.706 7.36992 89.706 7.60795C89.706 7.87028 89.8056 8.09616 90.0048 8.28562C90.1991 8.47993 90.5707 8.70096 91.1196 8.94871C91.9455 9.32277 92.4507 9.6871 92.6353 10.0417C92.8199 10.4012 92.9122 10.7461 92.9122 11.0764C92.9122 11.5962 92.7409 12.0189 92.3985 12.3443C92.056 12.6698 91.6249 12.8326 91.1051 12.8326C90.5561 12.8326 90.0679 12.6067 89.6404 12.1549C89.5093 12.3006 89.4024 12.5095 89.3198 12.7815L89.0356 12.7815Z" fill="#eb493a" fill-rule="nonzero" opacity="1" stroke="1"/>
</g>

</svg>
